<svg width="99" height="65" viewBox="0 0 99 65" fill="none" xmlns="http://www.w3.org/2000/svg">
<path d="M42.232 55.432C38.1253 61.24 32.288 64.144 24.72 64.144C17.152 64.144 11.3147 61.24 7.208 55.432C3.04267 49.5653 0.96 41.8213 0.96 32.2C0.96 22.5787 3.04267 14.8347 7.208 8.968C11.3147 3.16 17.152 0.255995 24.72 0.255995C32.288 0.255995 38.1253 3.16 42.232 8.968C46.3973 14.8347 48.48 22.5787 48.48 32.2C48.48 41.8213 46.3973 49.5653 42.232 55.432ZM9.144 32.2C9.144 39.8267 10.4933 45.7227 13.192 49.888C15.8907 54.0533 19.7333 56.136 24.72 56.136C29.7067 56.136 33.5493 54.0533 36.248 49.888C39.0053 45.7227 40.384 39.8267 40.384 32.2C40.384 24.5733 39.0053 18.6773 36.248 14.512C33.5493 10.288 29.7067 8.176 24.72 8.176C19.7333 8.176 15.8907 10.2587 13.192 14.424C10.4933 18.5893 9.144 24.5147 9.144 32.2ZM51.9429 7.032L68.1349 1.4H75.1749V63H67.0789V10.2L53.9669 14.072L51.9429 7.032ZM92.7261 63.968C91.1421 63.968 89.7928 63.4107 88.6781 62.296C87.5635 61.1813 87.0061 59.832 87.0061 58.248C87.0061 56.664 87.5635 55.3147 88.6781 54.2C89.7928 53.0853 91.1421 52.528 92.7261 52.528C94.3688 52.528 95.7181 53.0853 96.7741 54.2C97.8888 55.3147 98.4461 56.664 98.4461 58.248C98.4461 59.832 97.8888 61.1813 96.7741 62.296C95.7181 63.4107 94.3688 63.968 92.7261 63.968Z" fill="#75BF7A"/>
</svg>
