<svg width="115" height="65" viewBox="0 0 115 65" fill="none" xmlns="http://www.w3.org/2000/svg">
<path d="M42.232 55.432C38.1253 61.24 32.288 64.144 24.72 64.144C17.152 64.144 11.3147 61.24 7.208 55.432C3.04267 49.5653 0.96 41.8213 0.96 32.2C0.96 22.5787 3.04267 14.8347 7.208 8.968C11.3147 3.16 17.152 0.255995 24.72 0.255995C32.288 0.255995 38.1253 3.16 42.232 8.968C46.3973 14.8347 48.48 22.5787 48.48 32.2C48.48 41.8213 46.3973 49.5653 42.232 55.432ZM9.144 32.2C9.144 39.8267 10.4933 45.7227 13.192 49.888C15.8907 54.0533 19.7333 56.136 24.72 56.136C29.7067 56.136 33.5493 54.0533 36.248 49.888C39.0053 45.7227 40.384 39.8267 40.384 32.2C40.384 24.5733 39.0053 18.6773 36.248 14.512C33.5493 10.288 29.7067 8.176 24.72 8.176C19.7333 8.176 15.8907 10.2587 13.192 14.424C10.4933 18.5893 9.144 24.5147 9.144 32.2ZM94.2565 63H54.4805V56.312L76.2165 34.136C82.0245 28.328 84.9285 23.3413 84.9285 19.176C84.9285 15.7733 83.8725 13.104 81.7605 11.168C79.7072 9.17333 77.1258 8.176 74.0165 8.176C68.2085 8.176 63.9845 10.9333 61.3445 16.448L54.4805 12.4C56.3578 8.46933 58.9978 5.47733 62.4005 3.424C65.8032 1.312 69.6458 0.255995 73.9285 0.255995C79.1498 0.255995 83.6378 1.95733 87.3925 5.36C91.2058 8.82133 93.1125 13.3973 93.1125 19.088C93.1125 25.3067 89.4458 32.0827 82.1125 39.416L66.3605 55.08H94.2565V63ZM108.367 63.968C106.783 63.968 105.433 63.4107 104.319 62.296C103.204 61.1813 102.647 59.832 102.647 58.248C102.647 56.664 103.204 55.3147 104.319 54.2C105.433 53.0853 106.783 52.528 108.367 52.528C110.009 52.528 111.359 53.0853 112.415 54.2C113.529 55.3147 114.087 56.664 114.087 58.248C114.087 59.832 113.529 61.1813 112.415 62.296C111.359 63.4107 110.009 63.968 108.367 63.968Z" fill="#75BF7A"/>
</svg>
