<svg width="113" height="65" viewBox="0 0 113 65" fill="none" xmlns="http://www.w3.org/2000/svg">
<path d="M42.232 55.432C38.1253 61.24 32.288 64.144 24.72 64.144C17.152 64.144 11.3147 61.24 7.208 55.432C3.04267 49.5653 0.96 41.8213 0.96 32.2C0.96 22.5787 3.04267 14.8347 7.208 8.968C11.3147 3.16 17.152 0.255995 24.72 0.255995C32.288 0.255995 38.1253 3.16 42.232 8.968C46.3973 14.8347 48.48 22.5787 48.48 32.2C48.48 41.8213 46.3973 49.5653 42.232 55.432ZM9.144 32.2C9.144 39.8267 10.4933 45.7227 13.192 49.888C15.8907 54.0533 19.7333 56.136 24.72 56.136C29.7067 56.136 33.5493 54.0533 36.248 49.888C39.0053 45.7227 40.384 39.8267 40.384 32.2C40.384 24.5733 39.0053 18.6773 36.248 14.512C33.5493 10.288 29.7067 8.176 24.72 8.176C19.7333 8.176 15.8907 10.2587 13.192 14.424C10.4933 18.5893 9.144 24.5147 9.144 32.2ZM91.5512 8.616L78.1752 26.656C82.9859 27.536 86.8579 29.5893 89.7912 32.816C92.7245 36.0427 94.1912 40.032 94.1912 44.784C94.1912 50.8267 92.1379 55.5493 88.0312 58.952C83.8659 62.4133 78.8792 64.144 73.0712 64.144C68.2605 64.144 64.0659 63.0587 60.4872 60.888C56.9085 58.7173 54.3565 55.6373 52.8312 51.648L59.6952 47.6C61.5139 53.2907 65.9725 56.136 73.0712 56.136C76.9432 56.136 80.0525 55.1387 82.3992 53.144C84.8045 51.0907 86.0072 48.304 86.0072 44.784C86.0072 41.264 84.8045 38.4773 82.3992 36.424C80.0525 34.3707 76.9432 33.344 73.0712 33.344H70.9592L67.7032 28.328L81.9592 9.056H54.5912V1.4H91.5512V8.616ZM106.39 63.968C104.806 63.968 103.457 63.4107 102.342 62.296C101.228 61.1813 100.67 59.832 100.67 58.248C100.67 56.664 101.228 55.3147 102.342 54.2C103.457 53.0853 104.806 52.528 106.39 52.528C108.033 52.528 109.382 53.0853 110.438 54.2C111.553 55.3147 112.11 56.664 112.11 58.248C112.11 59.832 111.553 61.1813 110.438 62.296C109.382 63.4107 108.033 63.968 106.39 63.968Z" fill="#75BF7A"/>
</svg>
